<svg width="20" height="20" viewBox="0 0 20 20" fill="none" xmlns="http://www.w3.org/2000/svg">
<path d="M13.75 18.2488V8.00117C13.7501 7.93534 13.7371 7.87015 13.712 7.80932C13.6868 7.74849 13.6499 7.69322 13.6033 7.64668C13.5568 7.60013 13.5015 7.56321 13.4407 7.53804C13.3799 7.51288 13.3147 7.49995 13.2488 7.5H11.7512C11.6853 7.49995 11.6201 7.51288 11.5593 7.53804C11.4985 7.56321 11.4432 7.60013 11.3967 7.64668C11.3501 7.69322 11.3132 7.74849 11.288 7.80932C11.2629 7.87015 11.2499 7.93534 11.25 8.00117V18.2488C11.2499 18.3147 11.2629 18.3799 11.288 18.4407C11.3132 18.5015 11.3501 18.5568 11.3967 18.6033C11.4432 18.6499 11.4985 18.6868 11.5593 18.712C11.6201 18.7371 11.6853 18.7501 11.7512 18.75H13.2488C13.3147 18.7501 13.3799 18.7371 13.4407 18.712C13.5015 18.6868 13.5568 18.6499 13.6033 18.6033C13.6499 18.5568 13.6868 18.5015 13.712 18.4407C13.7371 18.3799 13.7501 18.3147 13.75 18.2488ZM3.75 18.2488L3.75 8.00117C3.75005 7.93534 3.73712 7.87015 3.71196 7.80932C3.68679 7.74849 3.64987 7.69322 3.60332 7.64668C3.55678 7.60013 3.50151 7.56321 3.44068 7.53804C3.37985 7.51288 3.31466 7.49995 3.24883 7.5H1.75117C1.68534 7.49995 1.62015 7.51288 1.55932 7.53804C1.49849 7.56321 1.44322 7.60013 1.39668 7.64668C1.35013 7.69322 1.31321 7.74849 1.28804 7.80932C1.26288 7.87015 1.24995 7.93534 1.25 8.00117L1.25 18.2488C1.24995 18.3147 1.26288 18.3799 1.28804 18.4407C1.31321 18.5015 1.35013 18.5568 1.39668 18.6033C1.44322 18.6499 1.49849 18.6868 1.55932 18.712C1.62015 18.7371 1.68534 18.7501 1.75117 18.75H3.24883C3.31466 18.7501 3.37985 18.7371 3.44068 18.712C3.50151 18.6868 3.55678 18.6499 3.60332 18.6033C3.64987 18.5568 3.68679 18.5015 3.71196 18.4407C3.73712 18.3799 3.75005 18.3147 3.75 18.2488ZM6.25 1.875L6.25 18.125C6.25 18.2908 6.31585 18.4497 6.43306 18.5669C6.55027 18.6842 6.70924 18.75 6.875 18.75H8.125C8.29076 18.75 8.44973 18.6842 8.56694 18.5669C8.68415 18.4497 8.75 18.2908 8.75 18.125V1.875C8.75 1.70924 8.68415 1.55027 8.56694 1.43306C8.44973 1.31585 8.29076 1.25 8.125 1.25H6.875C6.70924 1.25 6.55027 1.31585 6.43306 1.43306C6.31585 1.55027 6.25 1.70924 6.25 1.875ZM16.25 1.875V18.125C16.25 18.2908 16.3158 18.4497 16.4331 18.5669C16.5503 18.6842 16.7092 18.75 16.875 18.75H18.125C18.2908 18.75 18.4497 18.6842 18.5669 18.5669C18.6842 18.4497 18.75 18.2908 18.75 18.125V1.875C18.75 1.70924 18.6842 1.55027 18.5669 1.43306C18.4497 1.31585 18.2908 1.25 18.125 1.25H16.875C16.7092 1.25 16.5503 1.31585 16.4331 1.43306C16.3158 1.55027 16.25 1.70924 16.25 1.875Z" fill="#FF6B00"/>
</svg>
